<svg width="126" height="126" viewBox="0 0 126 126" fill="none" xmlns="http://www.w3.org/2000/svg">
<g filter="url(#filter0_d_1_1285)">
<rect x="38.3601" y="19.9399" width="48.96" height="48.96" rx="12.24" fill="#AD7933"/>
<path d="M65.7 54.3499H59.4L58.65 52.3249H47.325V33.0499C47.325 32.1499 48.075 31.3999 48.975 31.3999H77.025C77.925 31.3999 78.675 32.1499 78.675 33.0499V52.3999H67.2L65.7 54.3499ZM60.225 53.2249H65.1749L66.6749 51.1999H77.55V33.0499C77.55 32.7499 77.325 32.5249 77.025 32.5249H48.975C48.675 32.5249 48.45 32.7499 48.45 33.0499V51.2749H59.475L60.225 53.2249Z" fill="white"/>
<path d="M75.5999 56.6H50.3999C47.6999 56.6 45.5249 54.425 45.5249 51.725V51.125H59.3999L60.1499 53.15H65.0999L66.5999 51.125H80.3999V51.725C80.4749 54.425 78.2249 56.6 75.5999 56.6ZM46.7249 52.325C47.0249 54.125 48.5249 55.475 50.3999 55.475H75.5249C77.3999 55.475 78.9749 54.125 79.1999 52.325H67.1999L65.6999 54.35H59.3999L58.6499 52.325H46.7249Z" fill="white"/>
<path d="M57.525 35.375H51.75V40.4H57.525V35.375Z" fill="white"/>
<path d="M58.0499 40.9249H51.1499V34.7749H58.0499V40.9249ZM52.2749 39.7999H56.9249V35.8999H52.2749V39.7999Z" fill="white"/>
<path d="M57.525 43.325H51.75V48.3499H57.525V43.325Z" fill="white"/>
<path d="M58.0499 48.95H51.1499V42.8H58.0499V48.95ZM52.2749 47.825H56.9249V43.925H52.2749V47.825Z" fill="white"/>
<path d="M74.55 37.25H61.125V38.375H74.55V37.25Z" fill="white"/>
<path d="M74.55 45.2749H61.125V46.3999H74.55V45.2749Z" fill="white"/>
</g>
<defs>
<filter id="filter0_d_1_1285" x="0.110107" y="0.049942" width="125.46" height="125.46" filterUnits="userSpaceOnUse" color-interpolation-filters="sRGB">
<feFlood flood-opacity="0" result="BackgroundImageFix"/>
<feColorMatrix in="SourceAlpha" type="matrix" values="0 0 0 0 0 0 0 0 0 0 0 0 0 0 0 0 0 0 127 0" result="hardAlpha"/>
<feOffset dy="18.36"/>
<feGaussianBlur stdDeviation="19.125"/>
<feComposite in2="hardAlpha" operator="out"/>
<feColorMatrix type="matrix" values="0 0 0 0 0.0509804 0 0 0 0 0.0470588 0 0 0 0 0.219608 0 0 0 0.15 0"/>
<feBlend mode="normal" in2="BackgroundImageFix" result="effect1_dropShadow_1_1285"/>
<feBlend mode="normal" in="SourceGraphic" in2="effect1_dropShadow_1_1285" result="shape"/>
</filter>
</defs>
</svg>
