<svg width="36" height="36" viewBox="0 0 36 36" fill="none" xmlns="http://www.w3.org/2000/svg">
<path d="M20.7 28.3499H14.4L13.65 26.3249H2.32495V7.0499C2.32495 6.1499 3.07495 5.3999 3.97495 5.3999H32.025C32.925 5.3999 33.675 6.1499 33.675 7.0499V26.3999H22.2L20.7 28.3499ZM15.225 27.2249H20.1749L21.6749 25.1999H32.55V7.0499C32.55 6.7499 32.325 6.5249 32.025 6.5249H3.97495C3.67495 6.5249 3.44995 6.7499 3.44995 7.0499V25.2749H14.475L15.225 27.2249Z" fill="white"/>
<path d="M30.5999 30.6H5.3999C2.6999 30.6 0.524902 28.425 0.524902 25.725V25.125H14.3999L15.1499 27.15H20.0999L21.5999 25.125H35.3999V25.725C35.4749 28.425 33.2249 30.6 30.5999 30.6ZM1.7249 26.325C2.0249 28.125 3.5249 29.475 5.3999 29.475H30.5249C32.3999 29.475 33.9749 28.125 34.1999 26.325H22.1999L20.6999 28.35H14.3999L13.6499 26.325H1.7249Z" fill="white"/>
<path d="M12.525 9.375H6.75V14.4H12.525V9.375Z" fill="white"/>
<path d="M13.0499 14.9249H6.1499V8.7749H13.0499V14.9249ZM7.2749 13.7999H11.9249V9.8999H7.2749V13.7999Z" fill="white"/>
<path d="M12.525 17.325H6.75V22.3499H12.525V17.325Z" fill="white"/>
<path d="M13.0499 22.95H6.1499V16.8H13.0499V22.95ZM7.2749 21.825H11.9249V17.925H7.2749V21.825Z" fill="white"/>
<path d="M29.55 11.25H16.125V12.375H29.55V11.25Z" fill="white"/>
<path d="M29.55 19.2749H16.125V20.3999H29.55V19.2749Z" fill="white"/>
</svg>
