<svg width="32" height="32" viewBox="0 0 32 32" fill="none" xmlns="http://www.w3.org/2000/svg">
<g clip-path="url(#clip0_1_1272)">
<path d="M28.2712 21.2588H27.1874V20.3026H28.2712C29.0362 20.3026 29.6737 19.6651 29.6737 18.9001V12.2063C29.6737 10.9951 28.6537 9.97508 27.4424 9.97508H20.4299C19.2187 9.97508 18.1987 10.9951 18.1987 12.2063V18.9001C18.1987 19.6651 18.8362 20.3026 19.6012 20.3026H20.6849V21.2588H19.6012C18.2624 21.2588 17.2424 20.1751 17.2424 18.9001V12.2063C17.2424 10.4213 18.6449 9.01883 20.4299 9.01883H27.5062C29.2912 9.01883 30.6937 10.4213 30.6937 12.2063V18.9001C30.6937 20.2388 29.6099 21.2588 28.2712 21.2588ZM23.9362 7.99883C22.0237 7.99883 20.4299 6.40508 20.4299 4.49258C20.4299 2.58008 22.0237 0.986328 23.9362 0.986328C25.8487 0.986328 27.4424 2.58008 27.4424 4.49258C27.4424 6.40508 25.9124 7.99883 23.9362 7.99883ZM23.9362 2.00633C22.5337 2.00633 21.3862 3.15383 21.3862 4.55633C21.3862 5.95883 22.5337 7.10633 23.9362 7.10633C25.3387 7.10633 26.4862 5.95883 26.4862 4.55633C26.4862 3.15383 25.3387 2.00633 23.9362 2.00633Z" fill="#F5F5F4"/>
<path d="M25.5937 30.6937C24.9562 30.6937 24.3825 30.3749 24 29.9287C23.6175 30.3749 23.0437 30.6937 22.4062 30.6937C21.2587 30.6937 20.3025 29.7374 20.3025 28.5899V13.0349H21.2587V28.5899C21.2587 29.2274 21.7687 29.7374 22.4062 29.7374C23.0437 29.7374 23.49 29.1637 23.49 28.5899V20.8124H24.4462V28.5899C24.4462 29.2274 24.9562 29.7374 25.5937 29.7374C26.2312 29.7374 26.7412 29.2274 26.7412 28.5899V13.0349H27.6975V28.5899C27.6975 29.7374 26.7412 30.6937 25.5937 30.6937Z" fill="#F5F5F4"/>
<path d="M18.7088 24.0636H1.05005V4.04614H19.0275V5.00239H2.0063V23.1074H18.7088V24.0636Z" fill="#F5F5F4"/>
<path d="M15.5851 12.9712H4.62012V13.9274H15.5851V12.9712Z" fill="#F5F5F4"/>
<path d="M15.5851 16.2224H4.62012V17.1787H15.5851V16.2224Z" fill="#F5F5F4"/>
<path d="M15.5851 19.5374H4.62012V20.4936H15.5851V19.5374Z" fill="#F5F5F4"/>
</g>
<defs>
<clipPath id="clip0_1_1272">
<rect width="30.6" height="30.6" fill="white" transform="translate(0.540039 0.540039)"/>
</clipPath>
</defs>
</svg>
