<svg width="126" height="126" viewBox="0 0 126 126" fill="none" xmlns="http://www.w3.org/2000/svg">
<g filter="url(#filter0_d_1_1270)">
<rect x="38.3601" y="20.3601" width="48.96" height="48.96" rx="12.24" fill="#AD7933"/>
<g clip-path="url(#clip0_1_1270)">
<path d="M75.2712 50.2588H74.1874V49.3026H75.2712C76.0362 49.3026 76.6737 48.6651 76.6737 47.9001V41.2063C76.6737 39.9951 75.6537 38.9751 74.4424 38.9751H67.4299C66.2187 38.9751 65.1987 39.9951 65.1987 41.2063V47.9001C65.1987 48.6651 65.8362 49.3026 66.6012 49.3026H67.6849V50.2588H66.6012C65.2624 50.2588 64.2424 49.1751 64.2424 47.9001V41.2063C64.2424 39.4213 65.6449 38.0188 67.4299 38.0188H74.5062C76.2912 38.0188 77.6937 39.4213 77.6937 41.2063V47.9001C77.6937 49.2388 76.6099 50.2588 75.2712 50.2588ZM70.9362 36.9988C69.0237 36.9988 67.4299 35.4051 67.4299 33.4926C67.4299 31.5801 69.0237 29.9863 70.9362 29.9863C72.8487 29.9863 74.4424 31.5801 74.4424 33.4926C74.4424 35.4051 72.9124 36.9988 70.9362 36.9988ZM70.9362 31.0063C69.5337 31.0063 68.3862 32.1538 68.3862 33.5563C68.3862 34.9588 69.5337 36.1063 70.9362 36.1063C72.3387 36.1063 73.4862 34.9588 73.4862 33.5563C73.4862 32.1538 72.3387 31.0063 70.9362 31.0063Z" fill="#F5F5F4"/>
<path d="M72.5937 59.6937C71.9562 59.6937 71.3825 59.3749 71 58.9287C70.6175 59.3749 70.0437 59.6937 69.4062 59.6937C68.2587 59.6937 67.3025 58.7374 67.3025 57.5899V42.0349H68.2587V57.5899C68.2587 58.2274 68.7687 58.7374 69.4062 58.7374C70.0437 58.7374 70.49 58.1637 70.49 57.5899V49.8124H71.4462V57.5899C71.4462 58.2274 71.9562 58.7374 72.5937 58.7374C73.2312 58.7374 73.7412 58.2274 73.7412 57.5899V42.0349H74.6975V57.5899C74.6975 58.7374 73.7412 59.6937 72.5937 59.6937Z" fill="#F5F5F4"/>
<path d="M65.7088 53.0636H48.05V33.0461H66.0275V34.0024H49.0063V52.1074H65.7088V53.0636Z" fill="#F5F5F4"/>
<path d="M62.5851 41.9712H51.6201V42.9274H62.5851V41.9712Z" fill="#F5F5F4"/>
<path d="M62.5851 45.2224H51.6201V46.1787H62.5851V45.2224Z" fill="#F5F5F4"/>
<path d="M62.5851 48.5374H51.6201V49.4936H62.5851V48.5374Z" fill="#F5F5F4"/>
</g>
</g>
<defs>
<filter id="filter0_d_1_1270" x="0.110107" y="0.470108" width="125.46" height="125.46" filterUnits="userSpaceOnUse" color-interpolation-filters="sRGB">
<feFlood flood-opacity="0" result="BackgroundImageFix"/>
<feColorMatrix in="SourceAlpha" type="matrix" values="0 0 0 0 0 0 0 0 0 0 0 0 0 0 0 0 0 0 127 0" result="hardAlpha"/>
<feOffset dy="18.36"/>
<feGaussianBlur stdDeviation="19.125"/>
<feComposite in2="hardAlpha" operator="out"/>
<feColorMatrix type="matrix" values="0 0 0 0 0.0509804 0 0 0 0 0.0470588 0 0 0 0 0.219608 0 0 0 0.15 0"/>
<feBlend mode="normal" in2="BackgroundImageFix" result="effect1_dropShadow_1_1270"/>
<feBlend mode="normal" in="SourceGraphic" in2="effect1_dropShadow_1_1270" result="shape"/>
</filter>
<clipPath id="clip0_1_1270">
<rect width="30.6" height="30.6" fill="white" transform="translate(47.54 29.54)"/>
</clipPath>
</defs>
</svg>
